<svg width="13" height="13" xmlns="http://www.w3.org/2000/svg" xml:space="preserve" version="1.1">

 <g>
  <title>Layer 1</title>
  <g id="svg_1">
   <path fill="#9FA4A8" d="m8.37211,3.37981l0.00731,0c0.34371,0 0.62404,-0.28033 0.62404,-0.62404c0,-0.34371 -0.28033,-0.62404 -0.62404,-0.62404l-0.00731,0c-0.34371,0 -0.62404,0.28033 -0.62404,0.62404c0,0.34371 0.28033,0.62404 0.62404,0.62404" class="st0" id="XMLID_7_"/>
   <path id="svg_2" fill="#9FA4A8" d="m12.74038,7.12404l0,-4.36827c0,-1.37971 -1.11644,-2.49615 -2.49615,-2.49615l-7.48845,0c-1.37971,0 -2.49615,1.11644 -2.49615,2.49615l0,4.9923c0,1.37971 1.11644,2.49615 2.49615,2.49615l7.48845,0c1.37971,0 2.49615,-1.11644 2.49615,-2.49615l0,-0.62404c0,0 0,0 0,0zm-9.98461,-5.61634l7.48845,0c0.68985,0.00244 1.24564,0.55822 1.24808,1.24808l0,2.8618l-0.80686,-0.80686l-0.00975,-0.00731c-0.37784,-0.36808 -0.86293,-0.59479 -1.36752,-0.59235c-0.50703,-0.00244 -0.98969,0.22426 -1.36752,0.59235l-0.00975,0.00731l-0.80686,0.80686l-1.4309,-1.4309l-0.00975,-0.00731c-0.37784,-0.36808 -0.86293,-0.59479 -1.36752,-0.59235c-0.50703,-0.00244 -0.98969,0.22426 -1.36752,0.59235l-0.00975,0.00731l-1.4309,1.4309l0,-2.8618c0.00244,-0.68985 0.55822,-1.24564 1.24808,-1.24808zm7.48845,7.48845l-7.48845,0c-0.68985,-0.00244 -1.24564,-0.55822 -1.24808,-1.24808l0,-0.36565l2.31333,-2.31333l0,0c0.19745,-0.18282 0.3559,-0.23401 0.49484,-0.23645c0.13651,0.00244 0.29739,0.05119 0.49484,0.23645l0,0l2.49615,2.49615c0.24376,0.24376 0.63866,0.24376 0.88243,0s0.24376,-0.63866 0,-0.88243l-0.18282,-0.18282l0.80686,-0.80686l0,0c0.19745,-0.18282 0.3559,-0.23401 0.49484,-0.23645c0.13651,0.00244 0.29739,0.05119 0.49484,0.23645l0,0l1.68929,1.68929l0,0.36565c-0.00244,0.68985 -0.55822,1.24564 -1.24808,1.24808z" class="st0"/>
   <path fill="#9FA4A8" d="m4.00385,12.74038l0.00731,0c0.34371,0 0.62404,-0.28033 0.62404,-0.62404c0,-0.34371 -0.28033,-0.62404 -0.62404,-0.62404l-0.00731,0c-0.34371,0 -0.62404,0.28033 -0.62404,0.62404c0,0.34371 0.28033,0.62404 0.62404,0.62404" class="st0" id="XMLID_3_"/>
   <path fill="#9FA4A8" d="m6.5,12.74038l0.00731,0c0.34371,0 0.62404,-0.28033 0.62404,-0.62404c0,-0.34371 -0.28033,-0.62404 -0.62404,-0.62404l-0.00731,0c-0.34371,0 -0.62404,0.28033 -0.62404,0.62404c0,0.34371 0.28033,0.62404 0.62404,0.62404" class="st0" id="XMLID_2_"/>
   <path fill="#9FA4A8" d="m8.99615,12.74038l0.00731,0c0.34371,0 0.62404,-0.28033 0.62404,-0.62404c0,-0.34371 -0.28033,-0.62404 -0.62404,-0.62404l-0.00731,0c-0.34371,0 -0.62404,0.28033 -0.62404,0.62404c0,0.34371 0.28033,0.62404 0.62404,0.62404" class="st0" id="XMLID_1_"/>
  </g>
 </g>
</svg>